<svg width="42" height="42" viewBox="0 0 42 42" fill="none" xmlns="http://www.w3.org/2000/svg">
<path d="M13.3636 38.1818H5.72727C5.22095 38.1818 4.73537 37.9807 4.37734 37.6227C4.01932 37.2646 3.81818 36.779 3.81818 36.2727V28.6364C3.81818 28.13 3.61705 27.6445 3.25902 27.2864C2.901 26.9284 2.41541 26.7273 1.90909 26.7273C1.40277 26.7273 0.917184 26.9284 0.55916 27.2864C0.201136 27.6445 0 28.13 0 28.6364V36.2727C0 37.7917 0.603407 39.2484 1.67748 40.3225C2.75155 41.3966 4.20831 42 5.72727 42H13.3636C13.87 42 14.3555 41.7989 14.7136 41.4408C15.0716 41.0828 15.2727 40.5972 15.2727 40.0909C15.2727 39.5846 15.0716 39.099 14.7136 38.741C14.3555 38.383 13.87 38.1818 13.3636 38.1818ZM40.0909 26.7273C39.5846 26.7273 39.099 26.9284 38.741 27.2864C38.383 27.6445 38.1818 28.13 38.1818 28.6364V36.2727C38.1818 36.779 37.9807 37.2646 37.6227 37.6227C37.2646 37.9807 36.779 38.1818 36.2727 38.1818H28.6364C28.13 38.1818 27.6445 38.383 27.2864 38.741C26.9284 39.099 26.7273 39.5846 26.7273 40.0909C26.7273 40.5972 26.9284 41.0828 27.2864 41.4408C27.6445 41.7989 28.13 42 28.6364 42H36.2727C37.7917 42 39.2484 41.3966 40.3225 40.3225C41.3966 39.2484 42 37.7917 42 36.2727V28.6364C42 28.13 41.7989 27.6445 41.4408 27.2864C41.0828 26.9284 40.5972 26.7273 40.0909 26.7273ZM36.2727 0H28.6364C28.13 0 27.6445 0.201136 27.2864 0.55916C26.9284 0.917184 26.7273 1.40277 26.7273 1.90909C26.7273 2.41541 26.9284 2.901 27.2864 3.25902C27.6445 3.61705 28.13 3.81818 28.6364 3.81818H36.2727C36.779 3.81818 37.2646 4.01932 37.6227 4.37734C37.9807 4.73537 38.1818 5.22095 38.1818 5.72727V13.3636C38.1818 13.87 38.383 14.3555 38.741 14.7136C39.099 15.0716 39.5846 15.2727 40.0909 15.2727C40.5972 15.2727 41.0828 15.0716 41.4408 14.7136C41.7989 14.3555 42 13.87 42 13.3636V5.72727C42 4.20831 41.3966 2.75155 40.3225 1.67748C39.2484 0.603407 37.7917 0 36.2727 0ZM1.90909 15.2727C2.41541 15.2727 2.901 15.0716 3.25902 14.7136C3.61705 14.3555 3.81818 13.87 3.81818 13.3636V5.72727C3.81818 5.22095 4.01932 4.73537 4.37734 4.37734C4.73537 4.01932 5.22095 3.81818 5.72727 3.81818H13.3636C13.87 3.81818 14.3555 3.61705 14.7136 3.25902C15.0716 2.901 15.2727 2.41541 15.2727 1.90909C15.2727 1.40277 15.0716 0.917184 14.7136 0.55916C14.3555 0.201136 13.87 0 13.3636 0H5.72727C4.20831 0 2.75155 0.603407 1.67748 1.67748C0.603407 2.75155 0 4.20831 0 5.72727V13.3636C0 13.87 0.201136 14.3555 0.55916 14.7136C0.917184 15.0716 1.40277 15.2727 1.90909 15.2727ZM17.1818 7.63636H9.54545C9.03913 7.63636 8.55355 7.8375 8.19552 8.19552C7.8375 8.55355 7.63636 9.03913 7.63636 9.54545V17.1818C7.63636 17.6881 7.8375 18.1737 8.19552 18.5317C8.55355 18.8898 9.03913 19.0909 9.54545 19.0909H17.1818C17.6881 19.0909 18.1737 18.8898 18.5317 18.5317C18.8898 18.1737 19.0909 17.6881 19.0909 17.1818V9.54545C19.0909 9.03913 18.8898 8.55355 18.5317 8.19552C18.1737 7.8375 17.6881 7.63636 17.1818 7.63636ZM15.2727 15.2727H11.4545V11.4545H15.2727V15.2727ZM24.8182 19.0909H32.4545C32.9609 19.0909 33.4465 18.8898 33.8045 18.5317C34.1625 18.1737 34.3636 17.6881 34.3636 17.1818V9.54545C34.3636 9.03913 34.1625 8.55355 33.8045 8.19552C33.4465 7.8375 32.9609 7.63636 32.4545 7.63636H24.8182C24.3119 7.63636 23.8263 7.8375 23.4683 8.19552C23.1102 8.55355 22.9091 9.03913 22.9091 9.54545V17.1818C22.9091 17.6881 23.1102 18.1737 23.4683 18.5317C23.8263 18.8898 24.3119 19.0909 24.8182 19.0909ZM26.7273 11.4545H30.5455V15.2727H26.7273V11.4545ZM17.1818 22.9091H9.54545C9.03913 22.9091 8.55355 23.1102 8.19552 23.4683C7.8375 23.8263 7.63636 24.3119 7.63636 24.8182V32.4545C7.63636 32.9609 7.8375 33.4465 8.19552 33.8045C8.55355 34.1625 9.03913 34.3636 9.54545 34.3636H17.1818C17.6881 34.3636 18.1737 34.1625 18.5317 33.8045C18.8898 33.4465 19.0909 32.9609 19.0909 32.4545V24.8182C19.0909 24.3119 18.8898 23.8263 18.5317 23.4683C18.1737 23.1102 17.6881 22.9091 17.1818 22.9091ZM15.2727 30.5455H11.4545V26.7273H15.2727V30.5455ZM24.8182 28.6364C25.3245 28.6364 25.8101 28.4352 26.1681 28.0772C26.5261 27.7192 26.7273 27.2336 26.7273 26.7273C27.2336 26.7273 27.7192 26.5261 28.0772 26.1681C28.4352 25.8101 28.6364 25.3245 28.6364 24.8182C28.6364 24.3119 28.4352 23.8263 28.0772 23.4683C27.7192 23.1102 27.2336 22.9091 26.7273 22.9091H24.8182C24.3119 22.9091 23.8263 23.1102 23.4683 23.4683C23.1102 23.8263 22.9091 24.3119 22.9091 24.8182V26.7273C22.9091 27.2336 23.1102 27.7192 23.4683 28.0772C23.8263 28.4352 24.3119 28.6364 24.8182 28.6364ZM32.4545 22.9091C31.9482 22.9091 31.4626 23.1102 31.1046 23.4683C30.7466 23.8263 30.5455 24.3119 30.5455 24.8182V30.5455C30.0391 30.5455 29.5535 30.7466 29.1955 31.1046C28.8375 31.4626 28.6364 31.9482 28.6364 32.4545C28.6364 32.9609 28.8375 33.4465 29.1955 33.8045C29.5535 34.1625 30.0391 34.3636 30.5455 34.3636H32.4545C32.9609 34.3636 33.4465 34.1625 33.8045 33.8045C34.1625 33.4465 34.3636 32.9609 34.3636 32.4545V24.8182C34.3636 24.3119 34.1625 23.8263 33.8045 23.4683C33.4465 23.1102 32.9609 22.9091 32.4545 22.9091ZM24.8182 30.5455C24.4406 30.5455 24.0715 30.6574 23.7575 30.8672C23.4436 31.077 23.1989 31.3751 23.0544 31.724C22.9099 32.0728 22.8721 32.4567 22.9458 32.827C23.0194 33.1973 23.2013 33.5375 23.4683 33.8045C23.7352 34.0715 24.0754 34.2533 24.4457 34.327C24.8161 34.4006 25.1999 34.3628 25.5488 34.2183C25.8976 34.0738 26.1958 33.8291 26.4055 33.5152C26.6153 33.2012 26.7273 32.8321 26.7273 32.4545C26.7273 31.9482 26.5261 31.4626 26.1681 31.1046C25.8101 30.7466 25.3245 30.5455 24.8182 30.5455Z" fill="white"/>
</svg>
