<svg width="42" height="33" viewBox="0 0 42 33" fill="none" xmlns="http://www.w3.org/2000/svg">
<path d="M0.75 31.75V29.9265C0.75 26.5411 2.09485 23.2943 4.48871 20.9005C6.88256 18.5066 10.1293 17.1617 13.5148 17.1617C16.9002 17.1617 20.1469 18.5066 22.5408 20.9005C24.9346 23.2943 26.2795 26.5411 26.2795 29.9265V31.75" stroke="black" stroke-width="1.5" stroke-linecap="round"/>
<path d="M22.6323 20.809C22.6323 18.3908 23.5929 16.0717 25.3028 14.3618C27.0127 12.6519 29.3318 11.6913 31.75 11.6913C32.9474 11.6913 34.133 11.9271 35.2392 12.3853C36.3454 12.8435 37.3505 13.5151 38.1972 14.3618C39.0438 15.2084 39.7154 16.2136 40.1736 17.3198C40.6318 18.426 40.8677 19.6116 40.8677 20.809V21.7207" stroke="black" stroke-width="1.5" stroke-linecap="round"/>
<path d="M18.6726 15.0254C17.3047 16.3933 15.4494 17.1618 13.5148 17.1618C11.5803 17.1618 9.72503 16.3933 8.35711 15.0254C6.98919 13.6575 6.2207 11.8022 6.2207 9.86768C6.2207 7.93315 6.98919 6.07786 8.35711 4.70994C9.72503 3.34202 11.5803 2.57354 13.5148 2.57354C15.4494 2.57354 17.3047 3.34202 18.6726 4.70994C20.0405 6.07786 20.809 7.93315 20.809 9.86768C20.809 11.8022 20.0405 13.6575 18.6726 15.0254Z" stroke="black" stroke-width="1.5" stroke-linecap="round" stroke-linejoin="round"/>
<path d="M35.6185 10.0889C34.5926 11.1149 33.2011 11.6912 31.7502 11.6912C30.2993 11.6912 28.9078 11.1149 27.8819 10.0889C26.856 9.06297 26.2796 7.6715 26.2796 6.22061C26.2796 4.76971 26.856 3.37824 27.8819 2.3523C28.9078 1.32637 30.2993 0.75 31.7502 0.75C33.2011 0.75 34.5926 1.32637 35.6185 2.3523C36.6444 3.37824 37.2208 4.76971 37.2208 6.22061C37.2208 7.6715 36.6444 9.06297 35.6185 10.0889Z" stroke="black" stroke-width="1.5" stroke-linecap="round" stroke-linejoin="round"/>
</svg>
