<svg width="30" height="32" viewBox="0 0 30 32" fill="none" xmlns="http://www.w3.org/2000/svg">
<path d="M2.32143 29.2351H9.96914V19.0052C9.96914 18.5444 10.13 18.1582 10.4518 17.8466C10.7722 17.5336 11.1692 17.3771 11.6429 17.3771H17.8571C18.3308 17.3771 18.7285 17.5336 19.0503 17.8466C19.3707 18.1582 19.5309 18.5444 19.5309 19.0052V29.2351H27.1786V11.7211C27.1786 11.5142 27.1323 11.3262 27.0398 11.1569C26.9473 10.9877 26.8209 10.8399 26.6607 10.7136L15.5081 2.53697C15.2955 2.35697 15.0428 2.26697 14.75 2.26697C14.4572 2.26697 14.2052 2.35697 13.9939 2.53697L2.83929 10.7136C2.68048 10.8426 2.55412 10.9904 2.46021 11.1569C2.36631 11.3235 2.32005 11.5116 2.32143 11.7211V29.2351ZM0.25 29.2351V11.7211C0.25 11.2053 0.368762 10.717 0.606286 10.2562C0.843809 9.79549 1.1711 9.41601 1.58814 9.11779L12.7428 0.90083C13.3269 0.466944 13.9939 0.25 14.7438 0.25C15.4936 0.25 16.1648 0.466944 16.7572 0.90083L27.9119 9.11578C28.3303 9.41399 28.6576 9.79415 28.8937 10.2562C29.1312 10.717 29.25 11.2053 29.25 11.7211V29.2351C29.25 29.7751 29.0435 30.2459 28.6306 30.6475C28.2177 31.0492 27.7337 31.25 27.1786 31.25H19.1331C18.6581 31.25 18.2604 31.0942 17.94 30.7825C17.6196 30.4695 17.4594 30.0827 17.4594 29.6219V19.394H12.0406V29.6219C12.0406 30.084 11.8804 30.4709 11.56 30.7825C11.2396 31.0942 10.8426 31.25 10.3689 31.25H2.32143C1.76629 31.25 1.28226 31.0492 0.869357 30.6475C0.456452 30.2459 0.25 29.7751 0.25 29.2351Z" fill="black" stroke="white" stroke-width="0.5"/>
</svg>
