<svg width="32" height="32" viewBox="0 0 32 32" fill="none" xmlns="http://www.w3.org/2000/svg">
<path d="M19.4791 20.8614C19.766 20.5745 19.9095 20.2432 19.9095 19.8675C19.9095 19.4919 19.766 19.1606 19.4791 18.8737C19.1922 18.5868 18.8609 18.4434 18.4853 18.4434C18.1096 18.4434 17.7784 18.5868 17.4915 18.8737C17.2046 19.1606 17.0611 19.4919 17.0611 19.8675C17.0611 20.2432 17.2046 20.5745 17.4915 20.8614C17.7784 21.1483 18.1096 21.2917 18.4853 21.2917C18.8609 21.2917 19.1922 21.1483 19.4791 20.8614ZM18.4853 16.1566C18.7029 16.1566 18.8913 16.0819 19.0506 15.9324C19.2098 15.7828 19.3089 15.6041 19.3478 15.3962C19.4086 14.9148 19.5496 14.5106 19.7709 14.1836C19.9909 13.8554 20.4182 13.3983 21.0528 12.8123C21.8236 12.1108 22.3609 11.4848 22.6648 10.9341C22.9687 10.3834 23.1207 9.7512 23.1207 9.03759C23.1207 7.80975 22.6831 6.78675 21.8078 5.96859C20.9325 5.14922 19.825 4.73953 18.4853 4.73953C17.6222 4.73953 16.8271 4.94377 16.1001 5.35224C15.3731 5.76192 14.7896 6.34545 14.3495 7.10283C14.2389 7.28883 14.2243 7.48516 14.3058 7.69183C14.3872 7.89849 14.5282 8.04194 14.7288 8.12218C14.9233 8.20485 15.1276 8.21457 15.3415 8.15136C15.5555 8.08814 15.722 7.96292 15.8412 7.77571C16.1609 7.287 16.5384 6.92047 16.9736 6.67612C17.4088 6.43177 17.9127 6.30959 18.4853 6.30959C19.3545 6.30959 20.0754 6.56732 20.648 7.08277C21.2218 7.59822 21.5087 8.26381 21.5087 9.07953C21.5087 9.57553 21.3689 10.0369 21.0893 10.4636C20.8121 10.8903 20.3344 11.4039 19.656 12.0045C18.9631 12.6002 18.4829 13.1326 18.2154 13.6019C17.948 14.0711 17.7838 14.6541 17.7231 15.3506C17.6939 15.5512 17.7559 15.736 17.9091 15.905C18.061 16.0728 18.2531 16.1566 18.4853 16.1566ZM8.66741 25.7794C7.82738 25.7794 7.12653 25.4986 6.56488 24.9369C6.00324 24.3753 5.72181 23.6745 5.72059 22.8344V3.195C5.72059 2.35618 6.00202 1.65534 6.56488 1.09247C7.12775 0.529612 7.82859 0.248788 8.66741 0.250004H28.305C29.1438 0.250004 29.8447 0.530827 30.4075 1.09247C30.9704 1.65412 31.2512 2.35496 31.25 3.195V22.8344C31.25 23.6732 30.9692 24.3735 30.4075 24.9351C29.8459 25.4968 29.1444 25.7782 28.3032 25.7794H8.66741ZM8.66741 23.9559H28.305C28.5846 23.9559 28.8417 23.8392 29.0764 23.6058C29.311 23.3724 29.4277 23.1152 29.4265 22.8344V3.195C29.4265 2.9154 29.3098 2.65828 29.0764 2.42365C28.8429 2.18902 28.5852 2.07232 28.3032 2.07353H8.66741C8.38659 2.07353 8.12887 2.19024 7.89424 2.42365C7.65961 2.65706 7.5429 2.91418 7.54412 3.195V22.8344C7.54412 23.114 7.66083 23.3711 7.89424 23.6058C8.12765 23.8404 8.38477 23.9571 8.66559 23.9559M3.195 31.25C2.35618 31.25 1.65534 30.9692 1.09247 30.4075C0.529611 29.8459 0.248788 29.145 0.250004 28.305V7.75383C0.250004 7.49489 0.336925 7.27849 0.510768 7.10465C0.684611 6.93081 0.901612 6.84389 1.16177 6.84389C1.42193 6.84389 1.63892 6.93081 1.81277 7.10465C1.98661 7.27849 2.07353 7.49549 2.07353 7.75565V28.305C2.07353 28.5846 2.19024 28.8417 2.42365 29.0764C2.65706 29.311 2.91418 29.4277 3.195 29.4265H23.7462C24.0051 29.4265 24.2215 29.5134 24.3953 29.6872C24.5692 29.8611 24.6567 30.0781 24.6579 30.3382C24.6592 30.5984 24.5716 30.8154 24.3953 30.9892C24.2191 31.1631 24.0027 31.25 23.7462 31.25H3.195Z" fill="black"/>
<path d="M8.66741 23.9559H28.305C28.5846 23.9559 28.8417 23.8392 29.0764 23.6058C29.311 23.3724 29.4277 23.1152 29.4265 22.8344V3.195C29.4265 2.9154 29.3098 2.65828 29.0764 2.42365C28.8429 2.18902 28.5852 2.07232 28.3032 2.07353H8.66741C8.38659 2.07353 8.12887 2.19024 7.89424 2.42365C7.65961 2.65706 7.5429 2.91418 7.54412 3.195V22.8344C7.54412 23.114 7.66083 23.3711 7.89424 23.6058C8.12765 23.8404 8.38477 23.9571 8.66559 23.9559M7.54412 2.07353V23.9559M19.4791 20.8614C19.766 20.5745 19.9095 20.2432 19.9095 19.8675C19.9095 19.4919 19.766 19.1606 19.4791 18.8737C19.1922 18.5868 18.8609 18.4434 18.4853 18.4434C18.1096 18.4434 17.7784 18.5868 17.4915 18.8737C17.2046 19.1606 17.0611 19.4919 17.0611 19.8675C17.0611 20.2432 17.2046 20.5745 17.4915 20.8614C17.7784 21.1483 18.1096 21.2917 18.4853 21.2917C18.8609 21.2917 19.1922 21.1483 19.4791 20.8614ZM18.4853 16.1566C18.7029 16.1566 18.8913 16.0819 19.0506 15.9324C19.2098 15.7828 19.3089 15.6041 19.3478 15.3962C19.4086 14.9148 19.5496 14.5106 19.7709 14.1836C19.9909 13.8554 20.4182 13.3983 21.0528 12.8123C21.8236 12.1108 22.3609 11.4848 22.6648 10.9341C22.9687 10.3834 23.1207 9.7512 23.1207 9.03759C23.1207 7.80975 22.6831 6.78675 21.8078 5.96859C20.9325 5.14922 19.825 4.73953 18.4853 4.73953C17.6222 4.73953 16.8271 4.94377 16.1001 5.35224C15.3731 5.76192 14.7896 6.34545 14.3495 7.10283C14.2389 7.28883 14.2243 7.48516 14.3058 7.69183C14.3872 7.89849 14.5282 8.04194 14.7288 8.12218C14.9233 8.20485 15.1276 8.21457 15.3415 8.15136C15.5555 8.08814 15.722 7.96292 15.8412 7.77571C16.1609 7.287 16.5384 6.92047 16.9736 6.67612C17.4088 6.43177 17.9127 6.30959 18.4853 6.30959C19.3545 6.30959 20.0754 6.56732 20.648 7.08277C21.2218 7.59822 21.5087 8.26381 21.5087 9.07953C21.5087 9.57553 21.3689 10.0369 21.0893 10.4636C20.8121 10.8903 20.3344 11.4039 19.656 12.0045C18.9631 12.6002 18.4829 13.1326 18.2154 13.6019C17.948 14.0711 17.7838 14.6541 17.7231 15.3506C17.6939 15.5512 17.7559 15.736 17.9091 15.905C18.061 16.0728 18.2531 16.1566 18.4853 16.1566ZM8.66741 25.7794C7.82738 25.7794 7.12653 25.4986 6.56488 24.9369C6.00324 24.3753 5.72181 23.6745 5.72059 22.8344V3.195C5.72059 2.35618 6.00202 1.65534 6.56488 1.09247C7.12775 0.529612 7.82859 0.248788 8.66741 0.250004H28.305C29.1438 0.250004 29.8447 0.530827 30.4075 1.09247C30.9704 1.65412 31.2512 2.35496 31.25 3.195V22.8344C31.25 23.6732 30.9692 24.3735 30.4075 24.9351C29.8459 25.4968 29.1444 25.7782 28.3032 25.7794H8.66741ZM3.195 31.25C2.35618 31.25 1.65534 30.9692 1.09247 30.4075C0.529611 29.8459 0.248788 29.145 0.250004 28.305V7.75383C0.250004 7.49489 0.336925 7.27849 0.510768 7.10465C0.684611 6.93081 0.901612 6.84389 1.16177 6.84389C1.42193 6.84389 1.63892 6.93081 1.81277 7.10465C1.98661 7.27849 2.07353 7.49549 2.07353 7.75565V28.305C2.07353 28.5846 2.19024 28.8417 2.42365 29.0764C2.65706 29.311 2.91418 29.4277 3.195 29.4265H23.7462C24.0051 29.4265 24.2215 29.5134 24.3953 29.6872C24.5692 29.8611 24.6567 30.0781 24.6579 30.3382C24.6592 30.5984 24.5716 30.8154 24.3953 30.9892C24.2191 31.1631 24.0027 31.25 23.7462 31.25H3.195Z" stroke="white" stroke-width="0.5"/>
</svg>
